<mxfile host="app.diagrams.net" modified="2020-12-09T02:13:23.427Z" agent="5.0 (Windows NT 10.0; Win64; x64) AppleWebKit/537.36 (KHTML, like Gecko) Chrome/86.0.4240.198 Safari/537.36" etag="N4sNoWpJt-gd3FHQ73iw" version="13.10.9" type="github">
  <diagram id="mzpncxx6JqFtztlFwEgZ" name="第 1 页">
    <mxGraphModel dx="930" dy="625" grid="1" gridSize="10" guides="1" tooltips="1" connect="1" arrows="1" fold="1" page="1" pageScale="1" pageWidth="827" pageHeight="1169" math="0" shadow="0">
      <root>
        <mxCell id="0" />
        <mxCell id="1" parent="0" />
        <mxCell id="ooUXY3a74bXdIgEJon3c-1" value="" style="rounded=0;whiteSpace=wrap;html=1;" vertex="1" parent="1">
          <mxGeometry x="180" y="190" width="340" height="200" as="geometry" />
        </mxCell>
        <mxCell id="ooUXY3a74bXdIgEJon3c-2" value="人力统计模块" style="text;html=1;strokeColor=none;fillColor=none;align=center;verticalAlign=middle;whiteSpace=wrap;rounded=0;" vertex="1" parent="1">
          <mxGeometry x="300" y="210" width="90" height="20" as="geometry" />
        </mxCell>
        <mxCell id="ooUXY3a74bXdIgEJon3c-3" value="个人录入" style="rounded=0;whiteSpace=wrap;html=1;" vertex="1" parent="1">
          <mxGeometry x="200" y="270" width="120" height="60" as="geometry" />
        </mxCell>
        <mxCell id="ooUXY3a74bXdIgEJon3c-4" value="人力统计" style="rounded=0;whiteSpace=wrap;html=1;" vertex="1" parent="1">
          <mxGeometry x="380" y="270" width="120" height="60" as="geometry" />
        </mxCell>
      </root>
    </mxGraphModel>
  </diagram>
</mxfile>
